<mxfile host="app.diagrams.net" modified="2024-04-05T09:13:15.088Z" agent="Mozilla/5.0 (Windows NT 10.0; Win64; x64) AppleWebKit/537.36 (KHTML, like Gecko) Chrome/124.0.0.0 Safari/537.36 Edg/124.0.0.0" version="24.2.2" etag="Gx5Q9okqc69_VdxXpPdM" type="github">
  <diagram name="Page-1" id="P0lt6HklCJg2nSSHHpBi">
    <mxGraphModel>
      <root>
        <mxCell id="0" />
        <mxCell id="1" parent="0" />
      </root>
    </mxGraphModel>
  </diagram>
</mxfile>
